<?xml version="1.0" standalone="no"?>
<!DOCTYPE svg PUBLIC "-//W3C//DTD SVG 20010904//EN"
 "http://www.w3.org/TR/2001/REC-SVG-20010904/DTD/svg10.dtd">
<svg version="1.0" xmlns="http://www.w3.org/2000/svg"
 width="1170.000000pt" height="1170.000000pt" viewBox="0 0 1170.000000 1170.000000"
 preserveAspectRatio="xMidYMid meet">
<metadata>
Created by potrace 1.11, written by Peter Selinger 2001-2013
</metadata>
<g transform="translate(0.000000,1170.000000) scale(0.100000,-0.100000)"
fill="#000000" stroke="none">
<path d="M5389 11666 c-2 -2 -40 -7 -84 -11 -44 -3 -91 -8 -105 -10 -14 -2
-52 -6 -85 -10 -54 -6 -311 -47 -375 -60 -14 -2 -50 -10 -80 -16 -551 -110
-1147 -334 -1660 -622 -153 -86 -415 -248 -430 -266 -3 -4 -25 -19 -50 -35
-67 -43 -273 -199 -370 -280 -85 -70 -107 -90 -204 -176 -65 -58 -369 -361
-421 -420 -212 -240 -376 -451 -523 -670 -66 -99 -202 -318 -202 -325 0 -2
-17 -32 -38 -66 -86 -143 -244 -473 -326 -684 -26 -66 -51 -129 -57 -140 -20
-44 -120 -359 -159 -502 -41 -151 -45 -170 -55 -228 -3 -16 -10 -43 -15 -60
-5 -16 -20 -95 -34 -175 -34 -190 -32 -179 -51 -330 -3 -19 -7 -62 -11 -95 -3
-33 -8 -71 -10 -85 -19 -116 -27 -823 -11 -980 5 -41 10 -103 12 -136 2 -34 6
-75 9 -90 3 -16 8 -54 11 -84 3 -30 8 -66 10 -80 2 -14 6 -43 10 -65 3 -23 7
-52 10 -65 3 -13 7 -42 11 -65 3 -22 9 -58 14 -80 5 -22 12 -56 15 -75 14 -81
82 -356 121 -485 10 -33 19 -63 20 -67 1 -5 3 -10 4 -13 1 -3 3 -8 4 -12 13
-51 122 -362 151 -428 7 -16 36 -84 65 -150 103 -239 216 -457 358 -695 43
-72 211 -330 222 -340 3 -3 21 -27 40 -55 41 -59 23 -36 168 -220 66 -82 129
-161 141 -175 127 -141 175 -193 297 -314 179 -180 207 -206 430 -394 118
-101 383 -291 604 -434 151 -99 434 -250 674 -362 290 -136 802 -312 1049
-361 10 -3 27 -7 37 -10 10 -3 27 -7 37 -9 10 -2 63 -13 118 -25 119 -24 130
-26 260 -47 55 -8 111 -17 125 -19 14 -3 56 -7 95 -11 38 -4 73 -8 76 -10 45
-26 1109 -25 1249 1 8 1 47 6 85 9 39 4 77 9 85 11 8 2 35 7 60 10 60 8 93 13
165 26 33 6 74 13 90 16 17 2 44 8 60 13 17 4 46 11 65 14 55 9 69 13 180 41
58 15 112 28 120 30 35 8 257 77 352 111 57 20 121 42 143 49 22 7 74 27 115
45 41 17 92 38 113 45 21 8 43 18 50 22 7 4 14 8 17 9 27 5 397 186 493 240
288 164 601 372 793 527 294 237 577 507 779 742 33 38 65 75 70 81 6 6 26 30
45 54 19 24 47 58 61 75 34 40 181 239 251 340 278 403 524 892 692 1373 47
134 116 358 131 422 2 8 17 70 33 137 17 67 33 136 36 155 3 18 12 65 20 103
16 79 19 97 46 280 22 151 31 240 47 460 9 128 9 609 -1 740 -16 218 -20 255
-46 445 -6 41 -13 93 -16 115 -3 22 -7 47 -10 55 -3 8 -8 33 -11 55 -4 31 -41
210 -68 325 -123 535 -377 1153 -677 1645 -368 604 -825 1121 -1375 1558 -189
150 -329 247 -623 432 -123 78 -434 239 -630 328 -409 184 -1003 360 -1425
422 -22 4 -52 8 -67 11 -16 2 -40 6 -55 8 -16 3 -73 10 -128 16 -55 6 -116 14
-135 17 -40 7 -1014 15 -1021 9z m821 -630 c118 -9 285 -26 310 -31 8 -2 43
-6 75 -10 33 -4 69 -9 80 -11 22 -5 61 -12 103 -19 15 -2 52 -9 82 -15 30 -6
66 -13 80 -16 119 -23 456 -116 610 -169 502 -174 1084 -488 1470 -792 209
-165 322 -264 506 -448 77 -77 177 -181 221 -231 135 -153 383 -472 383 -493
0 -5 3 -11 8 -13 4 -1 37 -48 73 -103 187 -284 344 -587 481 -930 36 -89 155
-437 163 -475 2 -8 17 -67 34 -130 28 -107 83 -365 96 -455 4 -22 8 -51 11
-65 2 -14 6 -50 9 -80 3 -30 8 -62 10 -70 2 -8 6 -44 10 -80 3 -36 8 -85 11
-110 22 -207 22 -659 -1 -895 -12 -130 -16 -165 -26 -235 -6 -41 -12 -86 -15
-100 -2 -14 -6 -45 -9 -70 -3 -25 -8 -52 -10 -60 -2 -8 -7 -31 -10 -50 -3 -19
-15 -75 -26 -125 -11 -49 -22 -98 -24 -107 -40 -180 -140 -501 -216 -693 -7
-16 -13 -34 -15 -40 -5 -23 -136 -309 -191 -420 -307 -611 -768 -1190 -1307
-1640 -430 -358 -946 -664 -1436 -852 -95 -36 -283 -104 -300 -108 -8 -2 -40
-12 -70 -21 -163 -48 -411 -112 -505 -128 -16 -3 -41 -8 -55 -11 -66 -13 -209
-36 -255 -41 -22 -2 -51 -6 -65 -9 -14 -3 -59 -7 -100 -10 -41 -4 -86 -8 -100
-10 -122 -21 -775 -22 -900 -1 -14 3 -56 7 -95 11 -63 6 -170 19 -235 30 -14
2 -41 6 -60 9 -19 3 -48 8 -65 12 -16 3 -39 7 -50 9 -224 35 -617 146 -915
258 -229 87 -619 278 -807 396 -95 59 -318 205 -323 211 -3 3 -34 27 -70 52
-78 56 -270 210 -366 293 -112 98 -393 382 -490 495 -49 58 -92 107 -95 110
-3 3 -57 73 -119 155 -300 396 -531 811 -714 1283 -62 158 -136 384 -161 488
-3 11 -16 64 -30 119 -24 95 -70 316 -80 380 -2 17 -9 62 -15 100 -16 111 -30
226 -36 295 -2 25 -7 88 -11 140 -17 215 -6 686 21 920 16 129 17 136 46 305
27 163 27 161 60 298 72 306 184 646 290 882 317 707 709 1255 1270 1775 208
194 606 491 825 616 168 96 292 164 299 164 5 0 17 6 25 13 24 20 306 147 466
210 350 137 731 239 1110 296 182 27 216 31 425 46 58 4 106 8 107 9 6 5 532
-2 603 -8z"/>
<path d="M5638 10495 c-2 -2 -50 -6 -108 -10 -58 -3 -118 -8 -135 -10 -16 -2
-55 -6 -85 -10 -82 -8 -153 -19 -280 -40 -22 -4 -197 -40 -240 -50 -238 -53
-542 -154 -779 -257 -168 -73 -482 -234 -489 -250 -2 -5 -9 -8 -14 -8 -13 0
-66 -33 -233 -144 -478 -317 -888 -717 -1227 -1196 -89 -126 -252 -388 -296
-476 -10 -22 -44 -89 -75 -151 -32 -62 -57 -115 -57 -117 0 -3 -14 -36 -31
-73 -85 -185 -174 -444 -239 -698 -26 -104 -51 -206 -54 -225 -3 -19 -8 -46
-11 -60 -18 -90 -42 -244 -50 -325 -3 -33 -8 -69 -10 -80 -25 -123 -25 -777 0
-928 2 -12 6 -49 10 -81 9 -94 47 -333 66 -416 6 -25 13 -54 15 -66 2 -11 15
-65 29 -120 15 -54 28 -110 31 -122 3 -13 31 -103 63 -200 184 -554 462 -1054
845 -1517 88 -106 428 -456 496 -510 14 -11 57 -47 95 -80 94 -80 276 -216
405 -302 282 -187 487 -295 875 -458 86 -36 448 -154 525 -170 8 -2 56 -13
105 -25 50 -12 101 -24 115 -26 14 -3 57 -11 95 -19 39 -7 90 -17 115 -20 25
-3 56 -8 70 -10 41 -6 102 -14 165 -21 33 -3 68 -8 78 -10 30 -5 316 -17 427
-17 100 0 355 11 430 18 19 2 62 6 95 10 33 3 71 7 85 10 14 2 45 7 70 10 25
3 70 10 100 16 30 5 69 11 85 14 17 3 41 8 55 11 14 3 32 7 40 9 214 46 245
55 470 126 132 42 212 72 415 154 138 55 376 178 530 272 11 7 27 15 35 19 30
15 215 138 218 146 2 4 8 8 14 8 6 0 71 45 144 101 492 371 886 807 1207 1334
91 150 269 506 322 645 20 52 40 104 45 115 4 11 18 49 30 85 12 36 26 74 31
85 9 23 81 272 95 330 57 246 94 454 109 620 4 39 8 81 11 95 21 128 20 595
-1 840 -4 45 -17 165 -21 184 -2 10 -6 44 -9 75 -4 31 -10 72 -15 91 -5 19
-11 53 -14 75 -3 22 -13 72 -21 110 -9 39 -18 81 -21 95 -37 185 -151 536
-249 764 -83 195 -137 301 -290 571 -98 174 -354 524 -504 690 -100 110 -369
374 -469 459 -290 248 -628 471 -962 633 -134 65 -177 85 -270 126 -172 74
-595 210 -729 233 -14 3 -42 9 -61 14 -19 5 -48 12 -65 14 -30 6 -59 11 -105
21 -14 3 -41 7 -60 9 -19 2 -62 9 -95 15 -33 6 -87 13 -120 16 -73 6 -142 13
-215 21 -53 6 -547 14 -552 9z"/>
</g>
</svg>
